<?xml version="1.0" encoding="UTF-8" standalone="no"?>
<!-- Created with Inkscape (http://www.inkscape.org/) -->

<svg
   xmlns:dc="http://purl.org/dc/elements/1.1/"
   xmlns:cc="http://creativecommons.org/ns#"
   xmlns:rdf="http://www.w3.org/1999/02/22-rdf-syntax-ns#"
   xmlns:svg="http://www.w3.org/2000/svg"
   xmlns="http://www.w3.org/2000/svg"
   xmlns:xlink="http://www.w3.org/1999/xlink"
   xmlns:sodipodi="http://sodipodi.sourceforge.net/DTD/sodipodi-0.dtd"
   xmlns:inkscape="http://www.inkscape.org/namespaces/inkscape"
   width="210mm"
   height="297mm"
   viewBox="0 0 744.09448819 1052.3622047"
   id="svg2"
   version="1.1"
   inkscape:version="0.91pre4 r13712"
   sodipodi:docname="web.logo.svg">
  <defs
     id="defs4" />
  <sodipodi:namedview
     id="base"
     pagecolor="#ffffff"
     bordercolor="#666666"
     borderopacity="1.0"
     inkscape:pageopacity="0.0"
     inkscape:pageshadow="2"
     inkscape:zoom="0.98994949"
     inkscape:cx="290.21608"
     inkscape:cy="743.77685"
     inkscape:document-units="px"
     inkscape:current-layer="layer1"
     showgrid="false"
     inkscape:window-width="1920"
     inkscape:window-height="1058"
     inkscape:window-x="0"
     inkscape:window-y="22"
     inkscape:window-maximized="0" />
  <metadata
     id="metadata7">
    <rdf:RDF>
      <cc:Work
         rdf:about="">
        <dc:format>image/svg+xml</dc:format>
        <dc:type
           rdf:resource="http://purl.org/dc/dcmitype/StillImage" />
      </cc:Work>
    </rdf:RDF>
  </metadata>
  <g
     inkscape:label="Layer 1"
     inkscape:groupmode="layer"
     id="layer1">
    <g
       id="layer1-1"
       transform="matrix(3.8065905,0,0,3.8065905,-155.79971,-4199.4792)">
      <path
         style="fill:#000000;fill-opacity:1;fill-rule:nonzero;stroke:none;stroke-width:2.28713989;stroke-linejoin:round;stroke-miterlimit:4;stroke-dasharray:none;stroke-opacity:1"
         d="m 3.9535519,989.2339 c 1.76369,3.5433 4.29443,6.6536 7.4752001,9.0285 a 0.78303305,0.78303305 0 0 1 0,1.255 c -6.3911501,4.772 -10.1593401,12.2743 -10.1700301,20.2504 l 0,0 c 0.005,4.961 1.46876,9.8106 4.20735,13.9473 a 0.78303305,0.78303305 0 0 1 -0.0999,0.986 l -5.36584995996,5.3659 6.27470995996,6.2747 5.3681101,-5.3681 a 0.78303305,0.78303305 0 0 1 0.98263,-0.1021 c 0.85019,0.5568 1.73287,1.0618 2.64378,1.5125 a 0.78303305,0.78303305 0 0 1 0.40848,0.9054 l -1.96752,7.3447 8.57127,2.2966 1.96866,-7.3458 a 0.78303305,0.78303305 0 0 1 0.8181,-0.5787 c 0.50358,0.04 1.00853,0.066 1.51363,0.076 0.5057,0 1.01132,-0.02 1.51592,-0.053 a 0.78303305,0.78303305 0 0 1 0.80674,0.5787 l 1.96186,7.3231 8.57129,-2.2954 -1.96185,-7.3254 a 0.78303305,0.78303305 0 0 1 0.40507,-0.9032 c 0.91022,-0.4567 1.79173,-0.9678 2.64038,-1.5307 a 0.78303305,0.78303305 0 0 1 0.98715,0.1 l 5.36585,5.3658 6.274706,-6.2747 -5.368106,-5.3681 a 0.78303305,0.78303305 0 0 1 -0.0999,-0.986 c 2.738916,-4.1359 4.202196,-8.9845 4.208486,-13.9451 -0.0122,-7.9852 -3.789726,-15.4942 -10.193846,-20.264 a 0.78303305,0.78303305 0 0 1 0,-1.2561 c 3.18008,-2.3706 5.71112,-5.4763 7.477436,-9.0149 l -10.654506,0 c -3.09804,3.3016 -7.40449,5.213 -11.94353,5.2195 a 0.78303305,0.78303305 0 0 1 -0.002,0 c -4.53797,-0.01 -8.84278,-1.9187 -11.9401,-5.2195 l -10.6794901,0 z m 19.9883101,14.3138 a 0.78303305,0.78303305 0 0 1 0.80562,0.7829 l 0,10.9178 a 0.78303305,0.78303305 0 0 1 -1.17438,0.6774 l -9.45067,-5.4566 a 0.78303305,0.78303305 0 0 1 -0.21217,-1.1767 c 2.51308,-3.0394 6.03544,-5.0743 9.9238,-5.7334 a 0.78303305,0.78303305 0 0 1 0.1078,-0.011 z m 5.21719,0.016 a 0.78303305,0.78303305 0 0 1 0.15544,0.01 c 3.88444,0.6572 7.40456,2.6874 9.91814,5.721 a 0.78303305,0.78303305 0 0 1 -0.21106,1.1778 l -9.4461,5.4532 a 0.78303305,0.78303305 0 0 1 -1.17438,-0.6774 l 0,-10.903 a 0.78303305,0.78303305 0 0 1 0.75796,-0.7818 z m -17.22537,9.9669 a 0.78303305,0.78303305 0 0 1 0.3733,0.1044 l 9.43929,5.451 a 0.78303305,0.78303305 0 0 1 0,1.3559 l -9.44838,5.4543 a 0.78303305,0.78303305 0 0 1 -1.12446,-0.4039 c -0.68493,-1.8321 -1.037,-3.7719 -1.04048,-5.7278 0.007,-1.9547 0.36235,-3.8934 1.04957,-5.7233 a 0.78303305,0.78303305 0 0 1 0.75116,-0.5072 z m 29.31865,0 a 0.78303305,0.78303305 0 0 1 0.72279,0.5084 c 0.68493,1.832 1.03814,3.7719 1.04162,5.7278 -0.007,1.9548 -0.36233,3.8921 -1.04957,5.7221 a 0.78303305,0.78303305 0 0 1 -1.12444,0.4028 l -9.44045,-5.4498 a 0.78303305,0.78303305 0 0 1 0,-1.3559 l 9.44838,-5.4558 a 0.78303305,0.78303305 0 0 1 0.40167,-0.1044 z m -12.04902,9.9704 a 0.78303305,0.78303305 0 0 1 0.37216,0.1055 l 9.45179,5.4566 a 0.78303305,0.78303305 0 0 1 0.21103,1.1766 c -2.51303,3.0393 -6.03447,5.0744 -9.92266,5.7335 a 0.78303305,0.78303305 0 0 1 -0.91452,-0.7727 l 0,-10.9166 a 0.78303305,0.78303305 0 0 1 0.8022,-0.7829 z m -5.26145,0 a 0.78303305,0.78303305 0 0 1 0.8056,0.7817 l 0,10.9019 a 0.78303305,0.78303305 0 0 1 -0.9134,0.7727 c -3.88442,-0.6572 -7.40454,-2.6885 -9.91814,-5.7221 a 0.78303305,0.78303305 0 0 1 0.2122,-1.1767 l 9.44495,-5.4532 a 0.78303305,0.78303305 0 0 1 0.36879,-0.1043 z"
         id="path106080"
         inkscape:connector-curvature="0" />
    </g>
    <path
       style="opacity:1;fill:none;fill-opacity:1;fill-rule:nonzero;stroke:#000000;stroke-width:3.8894546;stroke-linecap:square;stroke-linejoin:miter;stroke-miterlimit:4;stroke-dasharray:none;stroke-opacity:1"
       d="m 64.274271,-216.85575 a 155.90147,155.90147 0 0 1 -118.91406,55.11914 155.90147,155.90147 0 0 1 -118.324221,-54.66602 l -1.07812,29.81836 -28.29297,1.02344 a 198.34248,198.34248 0 0 0 147.695311,66.26563 198.34248,198.34248 0 0 0 147.66797,-66.28907 l -27.6582,-1 -1.09571,-30.27148 z"
       id="circle4198"
       inkscape:connector-curvature="0" />
    <g
       transform="matrix(3.8065905,0,0,3.8065905,-429.37114,-3415.9077)"
       id="g4221">
      <path
         inkscape:connector-curvature="0"
         id="path4223"
         d="m 3.9535519,989.2339 c 1.76369,3.5433 4.29443,6.6536 7.4752001,9.0285 a 0.78303305,0.78303305 0 0 1 0,1.255 c -6.3911501,4.772 -10.1593401,12.2743 -10.1700301,20.2504 l 0,0 c 0.005,4.961 1.46876,9.8106 4.20735,13.9473 a 0.78303305,0.78303305 0 0 1 -0.0999,0.986 l -5.36584995996,5.3659 6.27470995996,6.2747 5.3681101,-5.3681 a 0.78303305,0.78303305 0 0 1 0.98263,-0.1021 c 0.85019,0.5568 1.73287,1.0618 2.64378,1.5125 a 0.78303305,0.78303305 0 0 1 0.40848,0.9054 l -1.96752,7.3447 8.57127,2.2966 1.96866,-7.3458 a 0.78303305,0.78303305 0 0 1 0.8181,-0.5787 c 0.50358,0.04 1.00853,0.066 1.51363,0.076 0.5057,0 1.01132,-0.02 1.51592,-0.053 a 0.78303305,0.78303305 0 0 1 0.80674,0.5787 l 1.96186,7.3231 8.57129,-2.2954 -1.96185,-7.3254 a 0.78303305,0.78303305 0 0 1 0.40507,-0.9032 c 0.91022,-0.4567 1.79173,-0.9678 2.64038,-1.5307 a 0.78303305,0.78303305 0 0 1 0.98715,0.1 l 5.36585,5.3658 6.274706,-6.2747 -5.368106,-5.3681 a 0.78303305,0.78303305 0 0 1 -0.0999,-0.986 c 2.738916,-4.1359 4.202196,-8.9845 4.208486,-13.9451 -0.0122,-7.9852 -3.789726,-15.4942 -10.193846,-20.264 a 0.78303305,0.78303305 0 0 1 0,-1.2561 c 3.18008,-2.3706 5.71112,-5.4763 7.477436,-9.0149 l -10.654506,0 c -3.09804,3.3016 -7.40449,5.213 -11.94353,5.2195 a 0.78303305,0.78303305 0 0 1 -0.002,0 c -4.53797,-0.01 -8.84278,-1.9187 -11.9401,-5.2195 l -10.6794901,0 z m 19.9883101,14.3138 a 0.78303305,0.78303305 0 0 1 0.80562,0.7829 l 0,10.9178 a 0.78303305,0.78303305 0 0 1 -1.17438,0.6774 l -9.45067,-5.4566 a 0.78303305,0.78303305 0 0 1 -0.21217,-1.1767 c 2.51308,-3.0394 6.03544,-5.0743 9.9238,-5.7334 a 0.78303305,0.78303305 0 0 1 0.1078,-0.011 z m 5.21719,0.016 a 0.78303305,0.78303305 0 0 1 0.15544,0.01 c 3.88444,0.6572 7.40456,2.6874 9.91814,5.721 a 0.78303305,0.78303305 0 0 1 -0.21106,1.1778 l -9.4461,5.4532 a 0.78303305,0.78303305 0 0 1 -1.17438,-0.6774 l 0,-10.903 a 0.78303305,0.78303305 0 0 1 0.75796,-0.7818 z m -17.22537,9.9669 a 0.78303305,0.78303305 0 0 1 0.3733,0.1044 l 9.43929,5.451 a 0.78303305,0.78303305 0 0 1 0,1.3559 l -9.44838,5.4543 a 0.78303305,0.78303305 0 0 1 -1.12446,-0.4039 c -0.68493,-1.8321 -1.037,-3.7719 -1.04048,-5.7278 0.007,-1.9547 0.36235,-3.8934 1.04957,-5.7233 a 0.78303305,0.78303305 0 0 1 0.75116,-0.5072 z m 29.31865,0 a 0.78303305,0.78303305 0 0 1 0.72279,0.5084 c 0.68493,1.832 1.03814,3.7719 1.04162,5.7278 -0.007,1.9548 -0.36233,3.8921 -1.04957,5.7221 a 0.78303305,0.78303305 0 0 1 -1.12444,0.4028 l -9.44045,-5.4498 a 0.78303305,0.78303305 0 0 1 0,-1.3559 l 9.44838,-5.4558 a 0.78303305,0.78303305 0 0 1 0.40167,-0.1044 z m -12.04902,9.9704 a 0.78303305,0.78303305 0 0 1 0.37216,0.1055 l 9.45179,5.4566 a 0.78303305,0.78303305 0 0 1 0.21103,1.1766 c -2.51303,3.0393 -6.03447,5.0744 -9.92266,5.7335 a 0.78303305,0.78303305 0 0 1 -0.91452,-0.7727 l 0,-10.9166 a 0.78303305,0.78303305 0 0 1 0.8022,-0.7829 z m -5.26145,0 a 0.78303305,0.78303305 0 0 1 0.8056,0.7817 l 0,10.9019 a 0.78303305,0.78303305 0 0 1 -0.9134,0.7727 c -3.88442,-0.6572 -7.40454,-2.6885 -9.91814,-5.7221 a 0.78303305,0.78303305 0 0 1 0.2122,-1.1767 l 9.44495,-5.4532 a 0.78303305,0.78303305 0 0 1 0.36879,-0.1043 z"
         style="fill:#000000;fill-opacity:1;fill-rule:nonzero;stroke:none;stroke-width:2.28713989;stroke-linejoin:round;stroke-miterlimit:4;stroke-dasharray:none;stroke-opacity:1" />
    </g>
    <path
       id="path4225"
       d="m -209.29716,566.71568 a 155.90147,155.90147 0 0 1 -118.91406,55.11914 155.90147,155.90147 0 0 1 -118.32422,-54.66602 l -1.07812,29.81836 -28.29297,1.02344 a 198.34248,198.34248 0 0 0 147.69531,66.26563 198.34248,198.34248 0 0 0 147.66797,-66.28907 l -27.6582,-1 -1.09571,-30.27148 z"
       style="opacity:1;fill:#000000;fill-opacity:1;fill-rule:nonzero;stroke:none;stroke-width:3.8894546;stroke-linejoin:round;stroke-miterlimit:4;stroke-dasharray:none;stroke-opacity:1"
       inkscape:connector-curvature="0" />
    <circle
       r="102.14286"
       cy="465.93362"
       cx="-328.21173"
       id="circle4227"
       style="opacity:1;fill:none;fill-opacity:1;fill-rule:nonzero;stroke:#000000;stroke-width:2.00300002;stroke-linejoin:round;stroke-miterlimit:4;stroke-dasharray:none;stroke-opacity:1" />
    <path
       id="circle4229"
       style="opacity:1;fill:none;fill-opacity:1;fill-rule:nonzero;stroke:none;stroke-width:2.99552774;stroke-linejoin:round;stroke-miterlimit:4;stroke-dasharray:none;stroke-opacity:1"
       sodipodi:type="arc"
       sodipodi:cx="54.808735"
       sodipodi:cy="-265.48404"
       sodipodi:rx="165.57661"
       sodipodi:ry="140.92947"
       sodipodi:start="0.75464972"
       sodipodi:end="2.3928372"
       d="m 175.43321,-168.94262 a 165.57661,140.92947 0 0 1 -121.112451,44.38744 165.57661,140.92947 0 0 1 -120.80296,-44.99428"
       sodipodi:open="true"
       transform="scale(-1,1)" />
    <text
       xml:space="preserve"
       style="font-style:normal;font-weight:normal;font-size:27.09579468px;line-height:125%;font-family:Sans;letter-spacing:0px;word-spacing:0px;fill:#000000;fill-opacity:1;stroke:none;stroke-width:1px;stroke-linecap:butt;stroke-linejoin:miter;stroke-opacity:1"
       id="text4231"
       sodipodi:linespacing="125%"
       transform="matrix(0.90360292,0,0,0.90360292,30.566432,30.205377)"><textPath
         xlink:href="#circle4229"
         id="textPath4266"><tspan
   style="font-style:normal;font-variant:normal;font-weight:normal;font-stretch:normal;font-size:27.09579468px;line-height:125%;font-family:'HanziPen SC';-inkscape-font-specification:'HanziPen SC, Normal';text-align:start;writing-mode:lr-tb;text-anchor:start"
   id="tspan4233">THE HORNED WHEEL</tspan></textPath></text>
    <g
       transform="matrix(3.8065905,0,0,3.8065905,-387.22828,-3850.9077)"
       id="g4271">
      <path
         inkscape:connector-curvature="0"
         id="path4273"
         d="m 3.9535519,989.2339 c 1.76369,3.5433 4.29443,6.6536 7.4752001,9.0285 a 0.78303305,0.78303305 0 0 1 0,1.255 c -6.3911501,4.772 -10.1593401,12.2743 -10.1700301,20.2504 l 0,0 c 0.005,4.961 1.46876,9.8106 4.20735,13.9473 a 0.78303305,0.78303305 0 0 1 -0.0999,0.986 l -5.36584995996,5.3659 6.27470995996,6.2747 5.3681101,-5.3681 a 0.78303305,0.78303305 0 0 1 0.98263,-0.1021 c 0.85019,0.5568 1.73287,1.0618 2.64378,1.5125 a 0.78303305,0.78303305 0 0 1 0.40848,0.9054 l -1.96752,7.3447 8.57127,2.2966 1.96866,-7.3458 a 0.78303305,0.78303305 0 0 1 0.8181,-0.5787 c 0.50358,0.04 1.00853,0.066 1.51363,0.076 0.5057,0 1.01132,-0.02 1.51592,-0.053 a 0.78303305,0.78303305 0 0 1 0.80674,0.5787 l 1.96186,7.3231 8.57129,-2.2954 -1.96185,-7.3254 a 0.78303305,0.78303305 0 0 1 0.40507,-0.9032 c 0.91022,-0.4567 1.79173,-0.9678 2.64038,-1.5307 a 0.78303305,0.78303305 0 0 1 0.98715,0.1 l 5.36585,5.3658 6.274706,-6.2747 -5.368106,-5.3681 a 0.78303305,0.78303305 0 0 1 -0.0999,-0.986 c 2.738916,-4.1359 4.202196,-8.9845 4.208486,-13.9451 -0.0122,-7.9852 -3.789726,-15.4942 -10.193846,-20.264 a 0.78303305,0.78303305 0 0 1 0,-1.2561 c 3.18008,-2.3706 5.71112,-5.4763 7.477436,-9.0149 l -10.654506,0 c -3.09804,3.3016 -7.40449,5.213 -11.94353,5.2195 a 0.78303305,0.78303305 0 0 1 -0.002,0 c -4.53797,-0.01 -8.84278,-1.9187 -11.9401,-5.2195 l -10.6794901,0 z m 19.9883101,14.3138 a 0.78303305,0.78303305 0 0 1 0.80562,0.7829 l 0,10.9178 a 0.78303305,0.78303305 0 0 1 -1.17438,0.6774 l -9.45067,-5.4566 a 0.78303305,0.78303305 0 0 1 -0.21217,-1.1767 c 2.51308,-3.0394 6.03544,-5.0743 9.9238,-5.7334 a 0.78303305,0.78303305 0 0 1 0.1078,-0.011 z m 5.21719,0.016 a 0.78303305,0.78303305 0 0 1 0.15544,0.01 c 3.88444,0.6572 7.40456,2.6874 9.91814,5.721 a 0.78303305,0.78303305 0 0 1 -0.21106,1.1778 l -9.4461,5.4532 a 0.78303305,0.78303305 0 0 1 -1.17438,-0.6774 l 0,-10.903 a 0.78303305,0.78303305 0 0 1 0.75796,-0.7818 z m -17.22537,9.9669 a 0.78303305,0.78303305 0 0 1 0.3733,0.1044 l 9.43929,5.451 a 0.78303305,0.78303305 0 0 1 0,1.3559 l -9.44838,5.4543 a 0.78303305,0.78303305 0 0 1 -1.12446,-0.4039 c -0.68493,-1.8321 -1.037,-3.7719 -1.04048,-5.7278 0.007,-1.9547 0.36235,-3.8934 1.04957,-5.7233 a 0.78303305,0.78303305 0 0 1 0.75116,-0.5072 z m 29.31865,0 a 0.78303305,0.78303305 0 0 1 0.72279,0.5084 c 0.68493,1.832 1.03814,3.7719 1.04162,5.7278 -0.007,1.9548 -0.36233,3.8921 -1.04957,5.7221 a 0.78303305,0.78303305 0 0 1 -1.12444,0.4028 l -9.44045,-5.4498 a 0.78303305,0.78303305 0 0 1 0,-1.3559 l 9.44838,-5.4558 a 0.78303305,0.78303305 0 0 1 0.40167,-0.1044 z m -12.04902,9.9704 a 0.78303305,0.78303305 0 0 1 0.37216,0.1055 l 9.45179,5.4566 a 0.78303305,0.78303305 0 0 1 0.21103,1.1766 c -2.51303,3.0393 -6.03447,5.0744 -9.92266,5.7335 a 0.78303305,0.78303305 0 0 1 -0.91452,-0.7727 l 0,-10.9166 a 0.78303305,0.78303305 0 0 1 0.8022,-0.7829 z m -5.26145,0 a 0.78303305,0.78303305 0 0 1 0.8056,0.7817 l 0,10.9019 a 0.78303305,0.78303305 0 0 1 -0.9134,0.7727 c -3.88442,-0.6572 -7.40454,-2.6885 -9.91814,-5.7221 a 0.78303305,0.78303305 0 0 1 0.2122,-1.1767 l 9.44495,-5.4532 a 0.78303305,0.78303305 0 0 1 0.36879,-0.1043 z"
         style="fill:#000000;fill-opacity:1;fill-rule:nonzero;stroke:none;stroke-width:2.28713989;stroke-linejoin:round;stroke-miterlimit:4;stroke-dasharray:none;stroke-opacity:1" />
    </g>
    <path
       id="path4275"
       d="m -167.1543,131.71568 a 155.90147,155.90147 0 0 1 -118.91406,55.11914 155.90147,155.90147 0 0 1 -118.32422,-54.66602 l -1.07812,29.81836 -28.29297,1.02344 a 198.34248,198.34248 0 0 0 147.69531,66.26563 198.34248,198.34248 0 0 0 147.66797,-66.28907 l -27.6582,-1 -1.09571,-30.27148 z"
       style="opacity:1;fill:none;fill-opacity:1;fill-rule:nonzero;stroke:#000000;stroke-width:3.8894546;stroke-linecap:square;stroke-linejoin:miter;stroke-miterlimit:4;stroke-dasharray:none;stroke-opacity:1"
       inkscape:connector-curvature="0" />
    <path
       transform="scale(-1,1)"
       sodipodi:open="true"
       d="M 406.86178,179.62882 A 165.57661,140.92947 0 0 1 285.74933,224.01626 165.57661,140.92947 0 0 1 164.94637,179.02199"
       sodipodi:end="2.3928372"
       sodipodi:start="0.75464972"
       sodipodi:ry="140.92947"
       sodipodi:rx="165.57661"
       sodipodi:cy="83.087402"
       sodipodi:cx="286.2373"
       sodipodi:type="arc"
       style="opacity:1;fill:none;fill-opacity:1;fill-rule:nonzero;stroke:none;stroke-width:2.99552774;stroke-linejoin:round;stroke-miterlimit:4;stroke-dasharray:none;stroke-opacity:1"
       id="path4277" />
    <text
       transform="matrix(0.90360292,0,0,0.90360292,-559.43357,-108.36605)"
       sodipodi:linespacing="125%"
       id="text4279"
       style="font-style:normal;font-weight:normal;font-size:27.09579468px;line-height:125%;font-family:Sans;letter-spacing:0px;word-spacing:0px;fill:#000000;fill-opacity:1;stroke:none;stroke-width:1px;stroke-linecap:butt;stroke-linejoin:miter;stroke-opacity:1"
       xml:space="preserve"><textPath
         id="textPath4281"
         xlink:href="#circle4229"><tspan
   id="tspan4283"
   style="font-style:normal;font-variant:normal;font-weight:normal;font-stretch:normal;font-size:27.09579468px;line-height:125%;font-family:'HanziPen SC';-inkscape-font-specification:'HanziPen SC, Normal';text-align:start;writing-mode:lr-tb;text-anchor:start">THE HORNED WHEEL</tspan></textPath></text>
    <g
       id="g4286"
       transform="matrix(3.8065905,0,0,3.8065905,1004.0206,-3462.1788)">
      <path
         style="fill:#000000;fill-opacity:1;fill-rule:nonzero;stroke:none;stroke-width:2.28713989;stroke-linejoin:round;stroke-miterlimit:4;stroke-dasharray:none;stroke-opacity:1"
         d="m 3.9535519,989.2339 c 1.76369,3.5433 4.29443,6.6536 7.4752001,9.0285 a 0.78303305,0.78303305 0 0 1 0,1.255 c -6.3911501,4.772 -10.1593401,12.2743 -10.1700301,20.2504 l 0,0 c 0.005,4.961 1.46876,9.8106 4.20735,13.9473 a 0.78303305,0.78303305 0 0 1 -0.0999,0.986 l -5.36584995996,5.3659 6.27470995996,6.2747 5.3681101,-5.3681 a 0.78303305,0.78303305 0 0 1 0.98263,-0.1021 c 0.85019,0.5568 1.73287,1.0618 2.64378,1.5125 a 0.78303305,0.78303305 0 0 1 0.40848,0.9054 l -1.96752,7.3447 8.57127,2.2966 1.96866,-7.3458 a 0.78303305,0.78303305 0 0 1 0.8181,-0.5787 c 0.50358,0.04 1.00853,0.066 1.51363,0.076 0.5057,0 1.01132,-0.02 1.51592,-0.053 a 0.78303305,0.78303305 0 0 1 0.80674,0.5787 l 1.96186,7.3231 8.57129,-2.2954 -1.96185,-7.3254 a 0.78303305,0.78303305 0 0 1 0.40507,-0.9032 c 0.91022,-0.4567 1.79173,-0.9678 2.64038,-1.5307 a 0.78303305,0.78303305 0 0 1 0.98715,0.1 l 5.36585,5.3658 6.274706,-6.2747 -5.368106,-5.3681 a 0.78303305,0.78303305 0 0 1 -0.0999,-0.986 c 2.738916,-4.1359 4.202196,-8.9845 4.208486,-13.9451 -0.0122,-7.9852 -3.789726,-15.4942 -10.193846,-20.264 a 0.78303305,0.78303305 0 0 1 0,-1.2561 c 3.18008,-2.3706 5.71112,-5.4763 7.477436,-9.0149 l -10.654506,0 c -3.09804,3.3016 -7.40449,5.213 -11.94353,5.2195 a 0.78303305,0.78303305 0 0 1 -0.002,0 c -4.53797,-0.01 -8.84278,-1.9187 -11.9401,-5.2195 l -10.6794901,0 z m 19.9883101,14.3138 a 0.78303305,0.78303305 0 0 1 0.80562,0.7829 l 0,10.9178 a 0.78303305,0.78303305 0 0 1 -1.17438,0.6774 l -9.45067,-5.4566 a 0.78303305,0.78303305 0 0 1 -0.21217,-1.1767 c 2.51308,-3.0394 6.03544,-5.0743 9.9238,-5.7334 a 0.78303305,0.78303305 0 0 1 0.1078,-0.011 z m 5.21719,0.016 a 0.78303305,0.78303305 0 0 1 0.15544,0.01 c 3.88444,0.6572 7.40456,2.6874 9.91814,5.721 a 0.78303305,0.78303305 0 0 1 -0.21106,1.1778 l -9.4461,5.4532 a 0.78303305,0.78303305 0 0 1 -1.17438,-0.6774 l 0,-10.903 a 0.78303305,0.78303305 0 0 1 0.75796,-0.7818 z m -17.22537,9.9669 a 0.78303305,0.78303305 0 0 1 0.3733,0.1044 l 9.43929,5.451 a 0.78303305,0.78303305 0 0 1 0,1.3559 l -9.44838,5.4543 a 0.78303305,0.78303305 0 0 1 -1.12446,-0.4039 c -0.68493,-1.8321 -1.037,-3.7719 -1.04048,-5.7278 0.007,-1.9547 0.36235,-3.8934 1.04957,-5.7233 a 0.78303305,0.78303305 0 0 1 0.75116,-0.5072 z m 29.31865,0 a 0.78303305,0.78303305 0 0 1 0.72279,0.5084 c 0.68493,1.832 1.03814,3.7719 1.04162,5.7278 -0.007,1.9548 -0.36233,3.8921 -1.04957,5.7221 a 0.78303305,0.78303305 0 0 1 -1.12444,0.4028 l -9.44045,-5.4498 a 0.78303305,0.78303305 0 0 1 0,-1.3559 l 9.44838,-5.4558 a 0.78303305,0.78303305 0 0 1 0.40167,-0.1044 z m -12.04902,9.9704 a 0.78303305,0.78303305 0 0 1 0.37216,0.1055 l 9.45179,5.4566 a 0.78303305,0.78303305 0 0 1 0.21103,1.1766 c -2.51303,3.0393 -6.03447,5.0744 -9.92266,5.7335 a 0.78303305,0.78303305 0 0 1 -0.91452,-0.7727 l 0,-10.9166 a 0.78303305,0.78303305 0 0 1 0.8022,-0.7829 z m -5.26145,0 a 0.78303305,0.78303305 0 0 1 0.8056,0.7817 l 0,10.9019 a 0.78303305,0.78303305 0 0 1 -0.9134,0.7727 c -3.88442,-0.6572 -7.40454,-2.6885 -9.91814,-5.7221 a 0.78303305,0.78303305 0 0 1 0.2122,-1.1767 l 9.44495,-5.4532 a 0.78303305,0.78303305 0 0 1 0.36879,-0.1043 z"
         id="path4288"
         inkscape:connector-curvature="0" />
    </g>
    <path
       style="opacity:1;fill:#ffffff;fill-opacity:1;fill-rule:nonzero;stroke:#000000;stroke-width:3.86171246;stroke-linejoin:round;stroke-miterlimit:4;stroke-dasharray:none;stroke-opacity:1"
       d="M 1105.1806,222.73551 A 196.9278,196.9278 0 0 0 908.25283,419.66325 196.9278,196.9278 0 0 0 1105.1806,616.59098 196.9278,196.9278 0 0 0 1302.1083,419.66325 196.9278,196.9278 0 0 0 1105.1806,222.73551 Z m 0,43.14844 a 153.77943,153.77943 0 0 1 153.7793,153.7793 153.77943,153.77943 0 0 1 -153.7793,153.7793 153.77943,153.77943 0 0 1 -153.77934,-153.7793 153.77943,153.77943 0 0 1 153.77934,-153.7793 z"
       id="circle4294"
       inkscape:connector-curvature="0" />
    <text
       xml:space="preserve"
       style="font-style:normal;font-weight:normal;font-size:40px;line-height:125%;font-family:Sans;letter-spacing:0px;word-spacing:0px;fill:#000000;fill-opacity:1;stroke:none;stroke-width:1px;stroke-linecap:butt;stroke-linejoin:miter;stroke-opacity:1;"
       id="text4296"
       sodipodi:linespacing="125%"><textPath
         xlink:href="#circle4304"
         id="textPath4306"
         style="-inkscape-font-specification:'American Typewriter, Normal';font-family:'American Typewriter';font-weight:normal;font-style:normal;font-stretch:normal;font-variant:normal;font-size:35px;text-anchor:start;text-align:start;writing-mode:lr;line-height:125%;fill:#000000;fill-opacity:1;">THE HORNED WHEEL</textPath></text>
    <circle
       r="163.49597"
       cy="66.136559"
       cx="-1180.3242"
       id="circle4304"
       style="opacity:1;fill:none;fill-opacity:1;fill-rule:nonzero;stroke:#000000;stroke-width:0.85796893;stroke-linejoin:round;stroke-miterlimit:4;stroke-dasharray:none;stroke-opacity:1"
       transform="matrix(-0.91354545,-0.40673665,0.40673665,-0.91354545,0,0)" />
    <path
       inkscape:connector-curvature="0"
       id="path4323"
       d="m 276.62275,95.142266 c 6.71365,13.487894 16.34714,25.327534 28.45503,34.367804 a 2.9806862,2.9806862 0 0 1 0,4.77727 c -24.32849,18.16505 -38.67245,46.72323 -38.71314,77.08498 l 0,0 c 0.019,18.8845 5.59097,37.34494 16.01566,53.09166 a 2.9806862,2.9806862 0 0 1 -0.38028,3.7533 l -20.42559,20.42578 23.88525,23.88521 20.43419,-20.43415 a 2.9806862,2.9806862 0 0 1 3.74047,-0.38866 c 3.23633,2.11951 6.59633,4.04184 10.06379,5.75747 a 2.9806862,2.9806862 0 0 1 1.55492,3.44649 l -7.48955,27.95826 32.62732,8.74222 7.49388,-27.96245 a 2.9806862,2.9806862 0 0 1 3.11417,-2.20288 c 1.91693,0.15227 3.83906,0.25124 5.76177,0.2893 1.925,0 3.84968,-0.0761 5.77049,-0.20175 a 2.9806862,2.9806862 0 0 1 3.07093,2.20288 l 7.468,27.87604 32.62739,-8.73765 -7.46796,-27.88479 a 2.9806862,2.9806862 0 0 1 1.54193,-3.43812 c 3.46484,-1.73847 6.82039,-3.68401 10.05085,-5.82674 a 2.9806862,2.9806862 0 0 1 3.75767,0.38065 l 20.4256,20.42541 23.88523,-23.88522 -20.43418,-20.43415 a 2.9806862,2.9806862 0 0 1 -0.38027,-3.7533 c 10.42593,-15.74368 15.99603,-34.20031 16.01998,-53.08329 -0.0464,-30.39638 -14.42594,-58.98007 -38.8038,-77.13675 a 2.9806862,2.9806862 0 0 1 0,-4.78146 c 12.10526,-9.0239 21.7399,-20.84603 28.46354,-34.316029 l -40.55734,0 C 396.40573,107.70744 380.01283,114.98336 362.73457,115.0081 a 2.9806862,2.9806862 0 0 1 -0.008,0 c -17.2742,-0.0381 -33.66085,-7.3037 -45.45108,-19.868499 l -40.65244,0 z m 76.08731,54.486774 a 2.9806862,2.9806862 0 0 1 3.06667,2.98018 l 0,41.55959 a 2.9806862,2.9806862 0 0 1 -4.47038,2.57859 l -35.97483,-20.77104 a 2.9806862,2.9806862 0 0 1 -0.80765,-4.47922 c 9.56627,-11.56975 22.97445,-19.31578 37.77584,-21.8247 a 2.9806862,2.9806862 0 0 1 0.41035,-0.0419 z m 19.85971,0.0609 a 2.9806862,2.9806862 0 0 1 0.5917,0.0381 c 14.78647,2.50169 28.18612,10.22983 37.75429,21.77751 a 2.9806862,2.9806862 0 0 1 -0.80341,4.4834 l -35.95744,20.7581 a 2.9806862,2.9806862 0 0 1 -4.47038,-2.57859 l 0,-41.50325 a 2.9806862,2.9806862 0 0 1 2.88524,-2.97599 z m -65.56993,37.9399 a 2.9806862,2.9806862 0 0 1 1.421,0.39741 l 35.93151,20.74973 a 2.9806862,2.9806862 0 0 1 0,5.16135 l -35.96611,20.76229 a 2.9806862,2.9806862 0 0 1 -4.28036,-1.53748 c -2.60725,-6.97406 -3.94743,-14.35808 -3.96068,-21.80339 0.0266,-7.44074 1.37932,-14.82058 3.99528,-21.78626 a 2.9806862,2.9806862 0 0 1 2.85936,-1.9307 z m 111.6041,0 a 2.9806862,2.9806862 0 0 1 2.75136,1.93527 c 2.60725,6.97368 3.95177,14.35808 3.96502,21.80339 -0.0266,7.44113 -1.37924,14.81563 -3.99528,21.78169 a 2.9806862,2.9806862 0 0 1 -4.28028,1.5333 l -35.93593,-20.74516 a 2.9806862,2.9806862 0 0 1 0,-5.16135 l 35.96611,-20.768 a 2.9806862,2.9806862 0 0 1 1.529,-0.39741 z m -45.86569,37.95323 a 2.9806862,2.9806862 0 0 1 1.41666,0.4016 l 35.97909,20.77104 a 2.9806862,2.9806862 0 0 1 0.80331,4.47883 c -9.56608,11.56938 -22.97076,19.31617 -37.7715,21.82509 a 2.9806862,2.9806862 0 0 1 -3.48121,-2.94135 l 0,-41.55503 a 2.9806862,2.9806862 0 0 1 3.05365,-2.98018 z m -20.02819,0 a 2.9806862,2.9806862 0 0 1 3.06659,2.97562 l 0,41.49906 a 2.9806862,2.9806862 0 0 1 -3.47694,2.94136 c -14.78639,-2.50169 -28.18605,-10.23402 -37.75429,-21.78169 a 2.9806862,2.9806862 0 0 1 0.80775,-4.47922 l 35.95306,-20.7581 a 2.9806862,2.9806862 0 0 1 1.40383,-0.39703 z"
       style="fill:#000000;fill-opacity:1;fill-rule:nonzero;stroke:none;stroke-width:2.28713989;stroke-linejoin:round;stroke-miterlimit:4;stroke-dasharray:none;stroke-opacity:1"
       inkscape:export-xdpi="28.469999"
       inkscape:export-ydpi="28.469999" />
    <text
       xml:space="preserve"
       style="font-style:normal;font-weight:normal;font-size:40px;line-height:125%;font-family:Sans;letter-spacing:0px;word-spacing:0px;fill:#000000;fill-opacity:1;stroke:none;stroke-width:1px;stroke-linecap:butt;stroke-linejoin:miter;stroke-opacity:1"
       x="156.35565"
       y="399.80365"
       id="text4325"
       sodipodi:linespacing="125%"><tspan
         sodipodi:role="line"
         id="tspan4327"
         x="156.35565"
         y="399.80365"
         style="font-style:normal;font-variant:normal;font-weight:normal;font-stretch:normal;font-size:40px;line-height:125%;font-family:'Roboto Slab';-inkscape-font-specification:'Roboto Slab, Normal';text-align:start;writing-mode:lr-tb;text-anchor:start">THE HORNED WHEEL</tspan></text>
  </g>
</svg>
