<?xml version="1.0" encoding="UTF-8" standalone="no"?>
<svg
   xmlns:osb="http://www.openswatchbook.org/uri/2009/osb"
   xmlns:dc="http://purl.org/dc/elements/1.1/"
   xmlns:cc="http://creativecommons.org/ns#"
   xmlns:rdf="http://www.w3.org/1999/02/22-rdf-syntax-ns#"
   xmlns:svg="http://www.w3.org/2000/svg"
   xmlns="http://www.w3.org/2000/svg"
   xmlns:xlink="http://www.w3.org/1999/xlink"
   version="1.1"
   id="svg2"
   viewBox="0 0 53.149606 63.779527"
   height="18mm"
   width="15mm">
  <g
     transform="scale(0.352782) translate(0,-988.58268)"
     id="layer1">
    <path
       id="path106080"
       d="m 3.9535519,989.2339 c 1.76369,3.5433 4.29443,6.6536 7.4752001,9.0285 a 0.78303305,0.78303305 0 0 1 0,1.255 c -6.3911501,4.772 -10.1593401,12.2743 -10.1700301,20.2504 l 0,0 c 0.005,4.961 1.46876,9.8106 4.20735,13.9473 a 0.78303305,0.78303305 0 0 1 -0.0999,0.986 l -5.36584995996,5.3659 6.27470995996,6.2747 5.3681101,-5.3681 a 0.78303305,0.78303305 0 0 1 0.98263,-0.1021 c 0.85019,0.5568 1.73287,1.0618 2.64378,1.5125 a 0.78303305,0.78303305 0 0 1 0.40848,0.9054 l -1.96752,7.3447 8.57127,2.2966 1.96866,-7.3458 a 0.78303305,0.78303305 0 0 1 0.8181,-0.5787 c 0.50358,0.04 1.00853,0.066 1.51363,0.076 0.5057,0 1.01132,-0.02 1.51592,-0.053 a 0.78303305,0.78303305 0 0 1 0.80674,0.5787 l 1.96186,7.3231 8.57129,-2.2954 -1.96185,-7.3254 a 0.78303305,0.78303305 0 0 1 0.40507,-0.9032 c 0.91022,-0.4567 1.79173,-0.9678 2.64038,-1.5307 a 0.78303305,0.78303305 0 0 1 0.98715,0.1 l 5.36585,5.3658 6.274706,-6.2747 -5.368106,-5.3681 a 0.78303305,0.78303305 0 0 1 -0.0999,-0.986 c 2.738916,-4.1359 4.202196,-8.9845 4.208486,-13.9451 -0.0122,-7.9852 -3.789726,-15.4942 -10.193846,-20.264 a 0.78303305,0.78303305 0 0 1 0,-1.2561 c 3.18008,-2.3706 5.71112,-5.4763 7.477436,-9.0149 l -10.654506,0 c -3.09804,3.3016 -7.40449,5.213 -11.94353,5.2195 a 0.78303305,0.78303305 0 0 1 -0.002,0 c -4.53797,-0.01 -8.84278,-1.9187 -11.9401,-5.2195 l -10.6794901,0 z m 19.9883101,14.3138 a 0.78303305,0.78303305 0 0 1 0.80562,0.7829 l 0,10.9178 a 0.78303305,0.78303305 0 0 1 -1.17438,0.6774 l -9.45067,-5.4566 a 0.78303305,0.78303305 0 0 1 -0.21217,-1.1767 c 2.51308,-3.0394 6.03544,-5.0743 9.9238,-5.7334 a 0.78303305,0.78303305 0 0 1 0.1078,-0.011 z m 5.21719,0.016 a 0.78303305,0.78303305 0 0 1 0.15544,0.01 c 3.88444,0.6572 7.40456,2.6874 9.91814,5.721 a 0.78303305,0.78303305 0 0 1 -0.21106,1.1778 l -9.4461,5.4532 a 0.78303305,0.78303305 0 0 1 -1.17438,-0.6774 l 0,-10.903 a 0.78303305,0.78303305 0 0 1 0.75796,-0.7818 z m -17.22537,9.9669 a 0.78303305,0.78303305 0 0 1 0.3733,0.1044 l 9.43929,5.451 a 0.78303305,0.78303305 0 0 1 0,1.3559 l -9.44838,5.4543 a 0.78303305,0.78303305 0 0 1 -1.12446,-0.4039 c -0.68493,-1.8321 -1.037,-3.7719 -1.04048,-5.7278 0.007,-1.9547 0.36235,-3.8934 1.04957,-5.7233 a 0.78303305,0.78303305 0 0 1 0.75116,-0.5072 z m 29.31865,0 a 0.78303305,0.78303305 0 0 1 0.72279,0.5084 c 0.68493,1.832 1.03814,3.7719 1.04162,5.7278 -0.007,1.9548 -0.36233,3.8921 -1.04957,5.7221 a 0.78303305,0.78303305 0 0 1 -1.12444,0.4028 l -9.44045,-5.4498 a 0.78303305,0.78303305 0 0 1 0,-1.3559 l 9.44838,-5.4558 a 0.78303305,0.78303305 0 0 1 0.40167,-0.1044 z m -12.04902,9.9704 a 0.78303305,0.78303305 0 0 1 0.37216,0.1055 l 9.45179,5.4566 a 0.78303305,0.78303305 0 0 1 0.21103,1.1766 c -2.51303,3.0393 -6.03447,5.0744 -9.92266,5.7335 a 0.78303305,0.78303305 0 0 1 -0.91452,-0.7727 l 0,-10.9166 a 0.78303305,0.78303305 0 0 1 0.8022,-0.7829 z m -5.26145,0 a 0.78303305,0.78303305 0 0 1 0.8056,0.7817 l 0,10.9019 a 0.78303305,0.78303305 0 0 1 -0.9134,0.7727 c -3.88442,-0.6572 -7.40454,-2.6885 -9.91814,-5.7221 a 0.78303305,0.78303305 0 0 1 0.2122,-1.1767 l 9.44495,-5.4532 a 0.78303305,0.78303305 0 0 1 0.36879,-0.1043 z"
       style="fill:#000000;fill-opacity:1;fill-rule:nonzero;stroke:none;stroke-width:2.28713989;stroke-linejoin:round;stroke-miterlimit:4;stroke-dasharray:none;stroke-opacity:1" />
  </g>
</svg>
